<?xml version="1.0" encoding="UTF-8"?>
<svg id="Vrstva_2" data-name="Vrstva 2" xmlns="http://www.w3.org/2000/svg" viewBox="0 0 14 13.25">
  <defs>
    <style>
      .cls-1 {
        fill-rule: evenodd;
      }
    </style>
  </defs>
  <g id="Vrstva_1-2" data-name="Vrstva 1">
    <g id="baggage--check-baggage-travel-adventure-luggage-bag-checked-airport">
      <path id="Subtract" class="cls-1" d="M7,1.5c-.46,0-.91.18-1.24.51-.21.21-.36.46-.44.74h3.35c-.08-.28-.23-.53-.44-.74-.33-.33-.77-.51-1.24-.51ZM4.7.95c-.49.49-.8,1.11-.91,1.78,0,.02,0,.05,0,.07v10.41s0,.03,0,.05h6.41s0-.03,0-.05V2.8s0-.05,0-.07c-.11-.67-.42-1.29-.91-1.78-.61-.61-1.44-.95-2.3-.95s-1.69.34-2.3.95ZM11.45,2.75s0,.03,0,.05v10.41s0,.03,0,.05h.05c1.38,0,2.5-1.12,2.5-2.5v-5.5c0-1.38-1.12-2.5-2.5-2.5h-.05ZM2.5,2.75h.05s0,.03,0,.05v10.41s0,.03,0,.05h-.05c-1.38,0-2.5-1.12-2.5-2.5v-5.5c0-1.38,1.12-2.5,2.5-2.5Z"/>
    </g>
  </g>
</svg>