<?xml version="1.0" encoding="UTF-8"?>
<svg id="Vrstva_2" data-name="Vrstva 2" xmlns="http://www.w3.org/2000/svg" viewBox="0 0 14 12.81">
  <defs>
    <style>
      .cls-1 {
        fill-rule: evenodd;
      }
    </style>
  </defs>
  <g id="Vrstva_1-2" data-name="Vrstva 1">
    <g id="megaphone-2--bullhorn-loud-megaphone-share-speaker-transmit">
      <path id="Union" class="cls-1" d="M5.25,2.81L11.96.1c.98-.38,2.04.34,2.04,1.4v8.23c0,1.02-1,1.75-1.97,1.42l-6.78-2.34V2.81ZM3,2.81h1v7c0,.55.45,1,1,1h.5c.55,0,1,.45,1,1s-.45,1-1,1h-.5c-1.66,0-3-1.34-3-3v-1.17c-1.17-.41-2-1.52-2-2.83,0-1.66,1.34-3,3-3Z"/>
    </g>
  </g>
</svg>