<?xml version="1.0" encoding="UTF-8"?>
<svg id="Vrstva_2" data-name="Vrstva 2" xmlns="http://www.w3.org/2000/svg" viewBox="0 0 14 13.94">
  <defs>
    <style>
      .cls-1 {
        fill-rule: evenodd;
      }
    </style>
  </defs>
  <g id="Vrstva_1-2" data-name="Vrstva 1">
    <g id="ball--sports-ball-sport-basketball-shopping-catergories">
      <path id="Subtract" class="cls-1" d="M1.33,2.86c-.84,1.15-1.33,2.57-1.33,4.11s.49,2.96,1.33,4.11c.01-.01.03-.02.04-.03.62-.42,1.13-1.01,1.5-1.73.36-.72.55-1.53.55-2.36s-.19-1.64-.55-2.36c-.36-.72-.88-1.31-1.5-1.73-.01,0-.03-.02-.04-.03ZM2.16,1.92c.76.54,1.39,1.27,1.83,2.14.45.89.69,1.9.69,2.92s-.24,2.02-.69,2.92c-.44.86-1.06,1.6-1.83,2.14,1.12,1.07,2.59,1.77,4.22,1.92V0c-1.63.14-3.1.85-4.22,1.92ZM7.62,13.94c1.63-.14,3.1-.85,4.22-1.92-.76-.54-1.39-1.27-1.83-2.14-.45-.89-.69-1.9-.69-2.92s.24-2.02.69-2.92c.44-.86,1.06-1.6,1.83-2.14-1.12-1.07-2.59-1.77-4.22-1.92v13.94ZM14,6.97c0,1.54-.49,2.96-1.33,4.11-.01-.01-.03-.02-.04-.03-.62-.42-1.13-1.01-1.5-1.73-.36-.72-.55-1.53-.55-2.36s.19-1.64.55-2.36c.36-.72.88-1.31,1.5-1.73.01,0,.03-.02.04-.03.84,1.15,1.33,2.57,1.33,4.11Z"/>
    </g>
  </g>
</svg>