<?xml version="1.0" encoding="UTF-8"?>
<svg id="Vrstva_2" data-name="Vrstva 2" xmlns="http://www.w3.org/2000/svg" viewBox="0 0 13.98 14">
  <defs>
    <style>
      .cls-1 {
        fill-rule: evenodd;
      }
    </style>
  </defs>
  <g id="Vrstva_1-2" data-name="Vrstva 1">
    <g id="logout-1--arrow-exit-frame-leave-logout-rectangle-right">
      <path id="Union" class="cls-1" d="M0,1.54C0,.69.69,0,1.54,0h6.93c.85,0,1.54.69,1.54,1.54v1.89s0,.02-.01.03c-.39.32-.65.77-.72,1.27,0,.02-.02.03-.03.03h-3.33c-1.2,0-2.3.86-2.4,2.05-.12,1.33.93,2.45,2.24,2.45h3.49s.03.01.03.03c.07.5.33.96.72,1.27,0,0,.01.02.01.03v1.89c0,.85-.69,1.54-1.54,1.54H1.54c-.85,0-1.54-.69-1.54-1.54V1.54ZM10.96,4.31c-.28.12-.46.39-.46.69v1h-4.75c-.55,0-1,.45-1,1s.45,1,1,1h4.75v1c0,.3.18.58.46.69.28.12.6.05.82-.16l1.97-1.97c.31-.31.31-.81,0-1.11l-1.97-1.97c-.21-.21-.54-.28-.82-.16Z"/>
    </g>
  </g>
</svg>