<?xml version="1.0" encoding="UTF-8"?>
<svg id="Vrstva_2" data-name="Vrstva 2" xmlns="http://www.w3.org/2000/svg" viewBox="0 0 14 14">
  <defs>
    <style>
      .cls-1 {
        fill-rule: evenodd;
      }
    </style>
  </defs>
  <g id="Vrstva_1-2" data-name="Vrstva 1">
    <g id="trophy--reward-rating-trophy-social-award-media">
      <path id="Union" class="cls-1" d="M0,.75c0-.41.34-.75.75-.75h2.88s.04,0,.06,0h6.62s.04,0,.05,0h2.88c.41,0,.75.34.75.75v2.88c0,1.86-1.4,3.39-3.2,3.61-.45,1.37-1.61,2.41-3.05,2.69v2.57h2.62c.41,0,.75.34.75.75s-.34.75-.75.75h-3.34s-.02,0-.03,0-.02,0-.03,0h-3.34c-.41,0-.75-.34-.75-.75s.34-.75.75-.75h2.62v-2.57c-1.44-.27-2.61-1.32-3.05-2.69-1.8-.22-3.2-1.75-3.2-3.61V.75ZM2.88,5.63V1.5h-1.38v2.14c0,.91.58,1.7,1.38,2ZM11.12,1.5v4.13c.81-.3,1.38-1.08,1.38-2V1.5h-1.38Z"/>
    </g>
  </g>
</svg>