<?xml version="1.0" encoding="UTF-8"?>
<svg id="Vrstva_2" data-name="Vrstva 2" xmlns="http://www.w3.org/2000/svg" viewBox="0 0 13.74 13.98">
  <defs>
    <style>
      .cls-1 {
        fill-rule: evenodd;
      }
    </style>
  </defs>
  <g id="Vrstva_1-2" data-name="Vrstva 1">
    <g id="fork-spoon--fork-spoon-food-dine-cook-utensils-eat-restaurant-dining-kitchenware">
      <path id="Union" class="cls-1" d="M.75,0C1.16,0,1.5.34,1.5.75h0v2.5c0,.68.39,1.29,1,1.58V.75C2.5.34,2.84,0,3.25,0c.41,0,.75.34.75.75h0v4.08c.61-.29,1-.91,1-1.58V.75C5,.34,5.34,0,5.75,0s.75.34.75.75v2.5c0,1.41-.91,2.66-2.25,3.09v6.63c0,.55-.45,1-1,1s-1-.45-1-1v-6.63C.91,5.91,0,4.66,0,3.25V.75C0,.34.34,0,.75,0ZM10.8,0C9.03,0,7.86,1.73,7.86,3.49c0,1.4.74,2.79,1.94,3.29v6.2c0,.55.45,1,1,1s1-.45,1-1v-6.2c1.2-.5,1.94-1.89,1.94-3.29C13.74,1.73,12.57,0,10.8,0Z"/>
    </g>
  </g>
</svg>