<?xml version="1.0" encoding="UTF-8"?>
<svg id="Vrstva_2" data-name="Vrstva 2" xmlns="http://www.w3.org/2000/svg" viewBox="0 0 13.91 13.61">
  <defs>
    <style>
      .cls-1 {
        fill-rule: evenodd;
      }
    </style>
  </defs>
  <g id="Vrstva_1-2" data-name="Vrstva 1">
    <g id="party-popper--hobby-entertainment-party-popper-confetti-event">
      <path id="Union" class="cls-1" d="M6.81.04c.39.14.6.56.46.95-.29.83-.25,1.73.11,2.54.17.38,0,.82-.38.99-.38.17-.82,0-.99-.38-.51-1.15-.57-2.45-.15-3.64.14-.39.56-.6.95-.46ZM4.46,2.72c.06-.41-.23-.79-.64-.85-.41-.06-.79.23-.85.64-.1.69.06,1.39.45,1.97.23.35.69.44,1.04.21.35-.23.44-.69.21-1.04-.18-.27-.26-.61-.21-.93ZM10.34,4.13c-.27-.07-.56-.07-.83,0-.27.07-.52.21-.73.4h-.01s-3.91,3.92-3.91,3.92h0s0,0,0,0c-.19.2-.34.45-.41.72-.07.27-.08.55-.02.83.06.27.19.52.38.73.19.21.42.36.68.46l6.23,2.32h0s0,0,0,0c.29.1.6.12.9.06.3-.06.57-.21.79-.42.22-.21.37-.48.45-.78.07-.3.06-.61-.03-.9,0,0,0-.01,0-.02l-2.31-6.23c-.09-.26-.24-.5-.44-.69-.21-.19-.46-.33-.73-.4ZM3.21,7.75c-.32-.07-.65-.02-.93.13-.36.2-.82.07-1.02-.29-.2-.36-.07-.82.29-1.02.61-.34,1.32-.44,1.99-.29.4.09.66.49.57.9s-.49.66-.9.57ZM1,3.34c-.55,0-1,.45-1,1s.45,1,1,1,1-.45,1-1-.45-1-1-1Z"/>
    </g>
  </g>
</svg>